<svg width="72" height="72" viewBox="0 0 72 72" fill="none" xmlns="http://www.w3.org/2000/svg">
<circle cx="36" cy="36" r="36" fill="#661CE7"/>
<path d="M25.528 48.48C23.896 48.48 22.456 48.1333 21.208 47.44C19.96 46.736 18.984 45.76 18.28 44.512C17.5867 43.264 17.24 41.824 17.24 40.192V32.768C17.24 31.136 17.5867 29.696 18.28 28.448C18.984 27.2 19.96 26.2293 21.208 25.536C22.456 24.832 23.896 24.48 25.528 24.48C27.16 24.48 28.5947 24.832 29.832 25.536C31.08 26.2293 32.056 27.2 32.76 28.448C33.464 29.696 33.816 31.136 33.816 32.768V40.192C33.816 41.824 33.464 43.264 32.76 44.512C32.056 45.76 31.08 46.736 29.832 47.44C28.5947 48.1333 27.16 48.48 25.528 48.48ZM25.528 44.816C26.3387 44.816 27.0747 44.624 27.736 44.24C28.3973 43.8453 28.92 43.3227 29.304 42.672C29.688 42.0107 29.88 41.2747 29.88 40.464V32.48C29.88 31.6587 29.688 30.9227 29.304 30.272C28.92 29.6107 28.3973 29.088 27.736 28.704C27.0747 28.3093 26.3387 28.112 25.528 28.112C24.7173 28.112 23.9813 28.3093 23.32 28.704C22.6587 29.088 22.136 29.6107 21.752 30.272C21.368 30.9227 21.176 31.6587 21.176 32.48V40.464C21.176 41.2747 21.368 42.0107 21.752 42.672C22.136 43.3227 22.6587 43.8453 23.32 44.24C23.9813 44.624 24.7173 44.816 25.528 44.816ZM37.6625 47.968V44.608L47.5185 35.824C48.2865 35.1413 48.8198 34.496 49.1185 33.888C49.4172 33.28 49.5665 32.6933 49.5665 32.128C49.5665 31.36 49.4012 30.6773 49.0705 30.08C48.7398 29.472 48.2812 28.992 47.6945 28.64C47.1185 28.288 46.4518 28.112 45.6945 28.112C44.8945 28.112 44.1852 28.2987 43.5665 28.672C42.9585 29.0347 42.4838 29.52 42.1425 30.128C41.8012 30.736 41.6412 31.392 41.6625 32.096H37.6945C37.6945 30.56 38.0358 29.2213 38.7185 28.08C39.4118 26.9387 40.3612 26.0533 41.5665 25.424C42.7825 24.7947 44.1852 24.48 45.7745 24.48C47.2465 24.48 48.5692 24.8107 49.7425 25.472C50.9158 26.1227 51.8385 27.0293 52.5105 28.192C53.1825 29.344 53.5185 30.672 53.5185 32.176C53.5185 33.2747 53.3692 34.1973 53.0705 34.944C52.7718 35.6907 52.3238 36.3787 51.7265 37.008C51.1398 37.6373 50.4092 38.336 49.5345 39.104L42.5425 45.296L42.1905 44.336H53.5185V47.968H37.6625Z" fill="white"/>
<mask id="mask0_757_97" style="mask-type:alpha" maskUnits="userSpaceOnUse" x="0" y="0" width="72" height="72">
<circle cx="36" cy="36" r="36" fill="#661CE7"/>
</mask>
<g mask="url(#mask0_757_97)">
<circle cx="36" cy="72" r="21" fill="white" fill-opacity="0.24"/>
</g>
</svg>
